# xmcd
#
# Track frame offsets:
#	150
#	19711
#	41224
#	61214
#	81119
#	101782
#	122825
#	144155
#	163138
#	181522
#	199951
#	217427
#	241021
#	259818
#	276542
#	291149
#	305879
#
# Disc length: 4401 seconds
#
# Revision: 0
# Processed by: cddbd v1.5.2PL0 Copyright (c) Steve Scherf et al.
# Submitted via: EasyCDDAExtractor 15.3.0.1
#
DISCID=07112f11
DTITLE=Various Artist - Disco Polo New Hits 9
DYEAR=2009
DGENRE=disco polo
TTITLE0=Effect - Chce Calowac
TTITLE1=Drossel - Ja Chce Miec Zone
TTITLE2=Carson - To Jej Caly Swiat
TTITLE3=Spike - Kocham Moja Malolate
TTITLE4=Two Boys - Zakochalem Sie
TTITLE5=Miroslaw Politowski - Siedem Dni I Siedem Nocy
TTITLE6=Tip Top - Dziewczyna Z Moich Snow
TTITLE7=Effect - Aniele Moj
TTITLE8=No Name - Wszystko To Co Mam
TTITLE9=Carson - Zajefana Muza
TTITLE10=Spike - Wyslij Do Mnie Sms-A
TTITLE11=Ka Em - Mowilas Ze Kochasz
TTITLE12=Alien - Prosta Milosc
TTITLE13=Dimex - Bylas Serca Biciem
TTITLE14=Spike And Maxx Dance - Bez Ciebie (Rmx)
TTITLE15=Drossel - Sexi Lala
TTITLE16=Julio - Moja Mamo
EXTD=
EXTT0=
EXTT1=
EXTT2=
EXTT3=
EXTT4=
EXTT5=
EXTT6=
EXTT7=
EXTT8=
EXTT9=
EXTT10=
EXTT11=
EXTT12=
EXTT13=
EXTT14=
EXTT15=
EXTT16=
PLAYORDER=
